<svg width="1818" height="152" viewBox="0 0 1818 152" fill="none" xmlns="http://www.w3.org/2000/svg">
<path d="M0.600001 117V108.4H16.4V9H0.600001V0.399999H96.8V34.6H88.2V9H28.2V53.4H65.2V38.2H73.4V78.2H65.4V62H28.2V108.4H91.4V81.8H100V117H0.600001ZM173.23 117V108.8H187.63L161.83 79.8H165.83L140.63 108.8H155.03V117H116.03V108.8H129.43L159.63 75L160.03 78.2L131.03 46.2H118.43V38H157.23V46.2H143.03L166.83 72.8L163.23 73L186.43 46.2H172.43V38H210.23V46.2H197.63L169.43 77.8L168.83 74.6L199.63 108.8H213.03V117H173.23ZM222.536 38H248.536V50.6L246.536 51.6C249.736 46.5333 254.136 42.6667 259.736 40C265.336 37.3333 271.403 36 277.936 36C286.069 36 292.936 37.8667 298.536 41.6C304.136 45.2 308.336 50.1333 311.136 56.4C314.069 62.5333 315.536 69.5333 315.536 77.4C315.536 85.2667 314.069 92.3333 311.136 98.6C308.336 104.867 304.136 109.867 298.536 113.6C292.936 117.2 286.069 119 277.936 119C271.403 119 265.336 117.667 259.736 115C254.136 112.2 249.736 108.333 246.536 103.4L248.936 104.4V143H262.736V151.2H223.336V143H238.336V46.2H222.536V38ZM276.136 110C284.936 110 291.936 107.133 297.136 101.4C302.336 95.6667 304.936 87.6667 304.936 77.4C304.936 67.1333 302.336 59.2 297.136 53.6C291.936 47.8667 284.936 45 276.136 45C270.269 45 264.869 46.1333 259.936 48.4C255.136 50.5333 251.203 53.8 248.136 58.2L248.936 53.2V102.2L248.136 96.8C251.203 101.067 255.136 104.333 259.936 106.6C264.869 108.867 270.269 110 276.136 110ZM381.052 119C371.185 119 362.918 117.2 356.252 113.6C349.718 110 344.785 105.067 341.452 98.8C338.118 92.5333 336.452 85.4667 336.452 77.6C336.452 69.6 338.118 62.4667 341.452 56.2C344.785 49.9333 349.518 45 355.652 41.4C361.918 37.8 369.185 36 377.452 36C385.852 36 393.052 37.8 399.052 41.4C405.052 45 409.652 49.9333 412.852 56.2C416.052 62.4667 417.652 69.6 417.652 77.6V81.6H343.252V73.2H407.452C407.318 67.7333 405.985 62.8 403.452 58.4C401.052 54 397.585 50.5333 393.052 48C388.652 45.4667 383.452 44.2 377.452 44.2C371.185 44.2 365.718 45.6 361.052 48.4C356.518 51.0667 352.985 54.7333 350.452 59.4C348.052 64.0667 346.852 69.2667 346.852 75V77.6C346.852 87.4667 349.785 95.4 355.652 101.4C361.518 107.267 370.052 110.2 381.252 110.2C386.852 110.2 392.385 109.133 397.852 107C403.452 104.733 408.052 101.867 411.652 98.4L416.452 106C412.052 110 406.718 113.2 400.452 115.6C394.185 117.867 387.718 119 381.052 119ZM434.889 117V108.8H449.689V46.2H433.889V38H459.889V56.8L457.889 56C460.689 50 464.089 45.2 468.089 41.6C472.089 38 476.689 36.2 481.889 36.2C486.422 36.2 490.889 37.4 495.289 39.8L491.889 49.8C489.756 48.3333 487.756 47.3333 485.889 46.8C484.022 46.1333 482.089 45.8 480.089 45.8C476.089 45.8 472.289 47.2667 468.689 50.2C465.222 53.1333 462.489 56.9333 460.489 61.6V108.8H476.689V117H434.889ZM505.491 117V108.8H520.291V46.2H504.491V38H531.091V108.8H544.891V117H505.491ZM525.491 21.6C522.691 21.6 520.624 20.8 519.291 19.2C517.957 17.6 517.291 15.7333 517.291 13.6C517.291 11.3333 517.957 9.39999 519.291 7.8C520.624 6.2 522.691 5.39999 525.491 5.39999C528.291 5.39999 530.357 6.2 531.691 7.8C533.157 9.39999 533.891 11.3333 533.891 13.6C533.891 15.7333 533.157 17.6 531.691 19.2C530.357 20.8 528.291 21.6 525.491 21.6ZM558.905 117V108.8H573.705V46.2H557.905V38H583.905V49L581.505 49.8C586.438 45.2667 591.771 41.8667 597.505 39.6C603.238 37.2 608.771 36 614.105 36C621.571 36 627.105 37.3333 630.705 40C634.438 42.6667 637.038 46.0667 638.505 50.2L636.905 49.6C641.971 45.0667 647.305 41.6667 652.905 39.4C658.638 37.1333 664.171 36 669.505 36C678.305 36 684.838 38.1333 689.105 42.4C693.505 46.6667 695.705 53.4 695.705 62.6V108.8H709.505V117H670.305V108.8H685.105V63.6C685.105 57.2 683.638 52.5333 680.705 49.6C677.771 46.5333 673.105 45 666.705 45C662.171 45 657.505 45.8667 652.705 47.6C647.905 49.2 642.705 52.4667 637.105 57.4L638.905 52C639.571 53.8667 639.971 55.8667 640.105 58C640.238 60 640.305 61.5333 640.305 62.6V108.8H653.905V117H614.905V108.8H629.505V63.6C629.505 57.2 628.038 52.5333 625.105 49.6C622.305 46.5333 617.705 45 611.305 45C606.771 45 602.105 45.8667 597.305 47.6C592.505 49.2 587.305 52.4667 581.705 57.4L584.505 53.4V108.8H598.105V117H558.905ZM770.294 119C760.427 119 752.16 117.2 745.494 113.6C738.96 110 734.027 105.067 730.694 98.8C727.36 92.5333 725.694 85.4667 725.694 77.6C725.694 69.6 727.36 62.4667 730.694 56.2C734.027 49.9333 738.76 45 744.894 41.4C751.16 37.8 758.427 36 766.694 36C775.094 36 782.294 37.8 788.294 41.4C794.294 45 798.894 49.9333 802.094 56.2C805.294 62.4667 806.894 69.6 806.894 77.6V81.6H732.494V73.2H796.694C796.56 67.7333 795.227 62.8 792.694 58.4C790.294 54 786.827 50.5333 782.294 48C777.894 45.4667 772.694 44.2 766.694 44.2C760.427 44.2 754.96 45.6 750.294 48.4C745.76 51.0667 742.227 54.7333 739.694 59.4C737.294 64.0667 736.094 69.2667 736.094 75V77.6C736.094 87.4667 739.027 95.4 744.894 101.4C750.76 107.267 759.294 110.2 770.494 110.2C776.094 110.2 781.627 109.133 787.094 107C792.694 104.733 797.294 101.867 800.894 98.4L805.694 106C801.294 110 795.96 113.2 789.694 115.6C783.427 117.867 776.96 119 770.294 119ZM824.131 117V108.8H838.931V46.2H823.131V38H849.131V49L846.731 49.8C851.798 45.2667 857.265 41.8667 863.131 39.6C868.998 37.2 874.665 36 880.131 36C889.198 36 895.931 38.1333 900.331 42.4C904.731 46.6667 906.931 53.4 906.931 62.6V108.8H920.731V117H881.331V108.8H896.131V63.6C896.131 57.2 894.598 52.5333 891.531 49.6C888.598 46.5333 883.865 45 877.331 45C872.665 45 867.865 45.8667 862.931 47.6C858.131 49.2 852.798 52.4667 846.931 57.4L849.731 52.2V108.8H863.531V117H824.131ZM970.819 119C963.085 119 956.885 117 952.219 113C947.685 109 945.419 102.467 945.419 93.4V46.2H929.619V38H945.419V11.2L956.219 8.8V38H978.819V46.2H956.219V91.6C956.219 98.6667 957.685 103.533 960.619 106.2C963.552 108.733 967.485 110 972.419 110C974.152 110 975.885 109.8 977.619 109.4C979.352 108.867 980.885 108.333 982.219 107.8L983.819 116.2C982.085 117 980.085 117.667 977.819 118.2C975.552 118.733 973.219 119 970.819 119ZM1028.64 119C1019.44 119 1012.37 116.933 1007.44 112.8C1002.64 108.667 1000.24 103 1000.24 95.8C1000.24 87.8 1002.97 81.8667 1008.44 78C1014.04 74 1021.5 72 1030.84 72C1035.37 72 1039.9 72.3333 1044.44 73C1049.1 73.6667 1053.97 74.6 1059.04 75.8L1056.04 77.6V64C1056.04 57.7333 1054.17 53 1050.44 49.8C1046.7 46.6 1041.04 45 1033.44 45C1029.17 45 1024.77 45.6 1020.24 46.8C1015.84 47.8667 1011.57 49.5333 1007.44 51.8L1004.44 43.2C1008.97 40.8 1013.9 39 1019.24 37.8C1024.57 36.6 1029.44 36 1033.84 36C1044.77 36 1052.97 38.4 1058.44 43.2C1064.04 48 1066.84 55.2 1066.84 64.8V108.8H1080.44V117H1056.44V104.8L1058.04 105.8C1054.04 110.2 1049.37 113.533 1044.04 115.8C1038.84 117.933 1033.7 119 1028.64 119ZM1030.24 110.6C1035.04 110.6 1039.77 109.6 1044.44 107.6C1049.24 105.6 1053.5 102.733 1057.24 99L1056.04 102.8V80.2L1059.04 83.6C1054.24 82.2667 1049.57 81.3333 1045.04 80.8C1040.64 80.2667 1036.5 80 1032.64 80C1025.7 80 1020.3 81.2667 1016.44 83.8C1012.7 86.2 1010.84 90.1333 1010.84 95.6C1010.84 100.4 1012.44 104.133 1015.64 106.8C1018.97 109.333 1023.84 110.6 1030.24 110.6ZM1090.98 117V108.8H1105.98V8.59999H1090.18V0.399999H1116.58V108.8H1130.58V117H1090.98ZM1205.92 117V108.4H1221.72V9H1205.92V0.399999H1266.52C1278.92 0.399999 1288.19 3.2 1294.32 8.8C1300.45 14.4 1303.52 22.5333 1303.52 33.2C1303.52 43.8667 1300.39 52 1294.12 57.6C1287.99 63.2 1279.05 66 1267.32 66H1264.12L1270.72 62.2L1299.52 108.4H1315.72V117H1291.12L1259.52 66H1243.12V57.4H1264.32C1274.19 57.4 1281.12 55.2 1285.12 50.8C1289.12 46.4 1291.12 40.5333 1291.12 33.2C1291.12 25.8667 1289.12 20 1285.12 15.6C1281.25 11.2 1274.32 9 1264.32 9H1233.52V108.4H1249.32V117H1205.92ZM1377.2 119C1367.33 119 1359.07 117.2 1352.4 113.6C1345.87 110 1340.93 105.067 1337.6 98.8C1334.27 92.5333 1332.6 85.4667 1332.6 77.6C1332.6 69.6 1334.27 62.4667 1337.6 56.2C1340.93 49.9333 1345.67 45 1351.8 41.4C1358.07 37.8 1365.33 36 1373.6 36C1382 36 1389.2 37.8 1395.2 41.4C1401.2 45 1405.8 49.9333 1409 56.2C1412.2 62.4667 1413.8 69.6 1413.8 77.6V81.6H1339.4V73.2H1403.6C1403.47 67.7333 1402.13 62.8 1399.6 58.4C1397.2 54 1393.73 50.5333 1389.2 48C1384.8 45.4667 1379.6 44.2 1373.6 44.2C1367.33 44.2 1361.87 45.6 1357.2 48.4C1352.67 51.0667 1349.13 54.7333 1346.6 59.4C1344.2 64.0667 1343 69.2667 1343 75V77.6C1343 87.4667 1345.93 95.4 1351.8 101.4C1357.67 107.267 1366.2 110.2 1377.4 110.2C1383 110.2 1388.53 109.133 1394 107C1399.6 104.733 1404.2 101.867 1407.8 98.4L1412.6 106C1408.2 110 1402.87 113.2 1396.6 115.6C1390.33 117.867 1383.87 119 1377.2 119ZM1475.64 119C1467.64 119 1460.84 117.4 1455.24 114.2C1449.77 110.867 1445.9 105.8 1443.64 99L1447.04 97.6V116.8H1438.44V89H1446.44C1446.7 94.0667 1448.17 98.3333 1450.84 101.8C1453.64 105.133 1457.1 107.6 1461.24 109.2C1465.5 110.8 1469.9 111.6 1474.44 111.6C1481.1 111.6 1486.17 110.333 1489.64 107.8C1493.24 105.267 1495.04 101.8 1495.04 97.4C1495.04 94.0667 1494.04 91.4 1492.04 89.4C1490.04 87.2667 1485.84 85.4 1479.44 83.8L1459.84 79C1453.3 77.4 1448.17 75 1444.44 71.8C1440.7 68.4667 1438.84 64.0667 1438.84 58.6C1438.84 53.9333 1440.04 49.9333 1442.44 46.6C1444.84 43.1333 1448.24 40.4667 1452.64 38.6C1457.04 36.7333 1462.24 35.8 1468.24 35.8C1474.9 35.8 1480.7 37.2 1485.64 40C1490.57 42.6667 1493.9 47 1495.64 53L1492.84 53.8V38H1501.24V63.8H1493.44C1493.17 58.4667 1491.9 54.3333 1489.64 51.4C1487.37 48.3333 1484.44 46.2 1480.84 45C1477.37 43.8 1473.77 43.2 1470.04 43.2C1463.1 43.2 1457.9 44.5333 1454.44 47.2C1451.1 49.7333 1449.44 53.1333 1449.44 57.4C1449.44 60.7333 1450.57 63.3333 1452.84 65.2C1455.24 67.0667 1459.17 68.6667 1464.64 70L1484.24 74.8C1491.44 76.5333 1496.77 79.0667 1500.24 82.4C1503.84 85.7333 1505.64 90.4 1505.64 96.4C1505.64 101.067 1504.37 105.133 1501.84 108.6C1499.44 111.933 1496.04 114.533 1491.64 116.4C1487.24 118.133 1481.9 119 1475.64 119ZM1562.52 119C1553.72 119 1547.06 116.867 1542.52 112.6C1537.99 108.2 1535.72 101.467 1535.72 92.4V46.2H1519.92V38H1546.52V91.4C1546.52 97.8 1547.99 102.533 1550.92 105.6C1553.99 108.533 1558.79 110 1565.32 110C1569.99 110 1574.79 109.133 1579.72 107.4C1584.66 105.533 1589.99 102.2 1595.72 97.4L1591.72 102.6V46.2H1576.92V38H1602.52V108.8H1616.32V117H1592.32V106L1595.92 105.2C1590.99 109.733 1585.59 113.2 1579.72 115.6C1573.86 117.867 1568.12 119 1562.52 119ZM1628.84 117V108.8H1643.84V8.59999H1628.04V0.399999H1654.44V108.8H1668.44V117H1628.84ZM1719.12 119C1711.39 119 1705.19 117 1700.52 113C1695.99 109 1693.72 102.467 1693.72 93.4V46.2H1677.92V38H1693.72V11.2L1704.52 8.8V38H1727.12V46.2H1704.52V91.6C1704.52 98.6667 1705.99 103.533 1708.92 106.2C1711.86 108.733 1715.79 110 1720.72 110C1722.46 110 1724.19 109.8 1725.92 109.4C1727.66 108.867 1729.19 108.333 1730.52 107.8L1732.12 116.2C1730.39 117 1728.39 117.667 1726.12 118.2C1723.86 118.733 1721.52 119 1719.12 119ZM1787.34 119C1779.34 119 1772.54 117.4 1766.94 114.2C1761.47 110.867 1757.61 105.8 1755.34 99L1758.74 97.6V116.8H1750.14V89H1758.14C1758.41 94.0667 1759.87 98.3333 1762.54 101.8C1765.34 105.133 1768.81 107.6 1772.94 109.2C1777.21 110.8 1781.61 111.6 1786.14 111.6C1792.81 111.6 1797.87 110.333 1801.34 107.8C1804.94 105.267 1806.74 101.8 1806.74 97.4C1806.74 94.0667 1805.74 91.4 1803.74 89.4C1801.74 87.2667 1797.54 85.4 1791.14 83.8L1771.54 79C1765.01 77.4 1759.87 75 1756.14 71.8C1752.41 68.4667 1750.54 64.0667 1750.54 58.6C1750.54 53.9333 1751.74 49.9333 1754.14 46.6C1756.54 43.1333 1759.94 40.4667 1764.34 38.6C1768.74 36.7333 1773.94 35.8 1779.94 35.8C1786.61 35.8 1792.41 37.2 1797.34 40C1802.27 42.6667 1805.61 47 1807.34 53L1804.54 53.8V38H1812.94V63.8H1805.14C1804.87 58.4667 1803.61 54.3333 1801.34 51.4C1799.07 48.3333 1796.14 46.2 1792.54 45C1789.07 43.8 1785.47 43.2 1781.74 43.2C1774.81 43.2 1769.61 44.5333 1766.14 47.2C1762.81 49.7333 1761.14 53.1333 1761.14 57.4C1761.14 60.7333 1762.27 63.3333 1764.54 65.2C1766.94 67.0667 1770.87 68.6667 1776.34 70L1795.94 74.8C1803.14 76.5333 1808.47 79.0667 1811.94 82.4C1815.54 85.7333 1817.34 90.4 1817.34 96.4C1817.34 101.067 1816.07 105.133 1813.54 108.6C1811.14 111.933 1807.74 114.533 1803.34 116.4C1798.94 118.133 1793.61 119 1787.34 119Z" fill="url(#paint0_linear_101_263)" fill-opacity="0.4"/>
<defs>
<linearGradient id="paint0_linear_101_263" x1="-7" y1="67" x2="1827" y2="67" gradientUnits="userSpaceOnUse">
<stop stop-color="#FFC7EF"/>
<stop offset="0.455" stop-color="#F6DEC2"/>
<stop offset="1" stop-color="#E6BDFF"/>
</linearGradient>
</defs>
</svg>
