<svg width="60" height="60" viewBox="0 0 60 60" fill="none" xmlns="http://www.w3.org/2000/svg">
<path d="M31.1875 48.9375H14.6563C13.6679 48.9375 12.8219 48.5856 12.1181 47.8819C11.4144 47.1781 11.0625 46.3321 11.0625 45.3438V28.8125H31.1875V48.9375ZM13.4063 13.4063H11.0625C11.0625 12.7617 11.2921 12.21 11.7513 11.7513C12.21 11.2921 12.7617 11.0625 13.4063 11.0625V13.4063ZM19.9688 13.4063V11.0625H22.3125V13.4063H19.9688ZM28.8438 13.4063V11.0625H31.1875V13.4063H28.8438ZM37.7188 13.4063V11.0625H40.0625V13.4063H37.7188ZM37.7188 48.9375V46.5938H40.0625V48.9375H37.7188ZM46.5938 13.4063V11.0625C47.2383 11.0625 47.79 11.2921 48.2488 11.7513C48.7079 12.21 48.9375 12.7617 48.9375 13.4063H46.5938ZM11.0625 22.2813V19.9375H13.4063V22.2813H11.0625ZM46.5938 46.5938H48.9375C48.9375 47.2383 48.7079 47.79 48.2488 48.2488C47.79 48.7079 47.2383 48.9375 46.5938 48.9375V46.5938ZM46.5938 40.0313V37.6875H48.9375V40.0313H46.5938ZM46.5938 31.1563V28.8125H48.9375V31.1563H46.5938ZM46.5938 22.2813V19.9375H48.9375V22.2813H46.5938Z" fill="#333333"/>
</svg>
