<svg width="60" height="60" viewBox="0 0 60 60" fill="none" xmlns="http://www.w3.org/2000/svg">
<path d="M30.0031 13.9688C29.5427 13.9688 29.1406 13.7979 28.7969 13.4562C28.4531 13.115 28.2812 12.714 28.2812 12.2531C28.2812 11.7927 28.4521 11.3906 28.7938 11.0469C29.135 10.7031 29.536 10.5312 29.9969 10.5312C30.4573 10.5312 30.8594 10.7021 31.2031 11.0438C31.5469 11.385 31.7188 11.786 31.7188 12.2469C31.7188 12.7073 31.5479 13.1094 31.2062 13.4531C30.865 13.7969 30.464 13.9688 30.0031 13.9688ZM30.0031 5.46875C29.5427 5.46875 29.1406 5.29792 28.7969 4.95625C28.4531 4.615 28.2812 4.21396 28.2812 3.75312C28.2812 3.29271 28.4521 2.89062 28.7938 2.54688C29.135 2.20312 29.536 2.03125 29.9969 2.03125C30.4573 2.03125 30.8594 2.20208 31.2031 2.54375C31.5469 2.885 31.7188 3.28604 31.7188 3.74688C31.7188 4.20729 31.5479 4.60938 31.2062 4.95312C30.865 5.29688 30.464 5.46875 30.0031 5.46875ZM23.1562 49.7812C21.2812 48.6354 19.8333 47.1094 18.8125 45.2031C17.7917 43.2969 17.2604 41.2292 17.2188 39C17.2604 36.3958 18.0104 34.0469 19.4688 31.9531C20.9271 29.8594 22.8438 28.2396 25.2188 27.0938V21C25.2188 20.7729 25.2921 20.5808 25.4387 20.4238C25.5858 20.2663 25.7729 20.1875 26 20.1875H34C34.2271 20.1875 34.4192 20.2663 34.5762 20.4238C34.7337 20.5808 34.8125 20.7729 34.8125 21V27.0938C37.1667 28.2188 39.0729 29.8333 40.5312 31.9375C41.9896 34.0417 42.75 36.3958 42.8125 39C42.75 41.2292 42.2031 43.2917 41.1719 45.1875C40.1406 47.0833 38.7083 48.6146 36.875 49.7812H23.1562ZM23.585 48.1875H36.415C37.8675 47.1042 39.0312 45.7652 39.9062 44.1706C40.7812 42.5765 41.2188 40.851 41.2188 38.9944C41.2188 36.8494 40.6354 34.8767 39.4688 33.0763C38.3021 31.2754 36.7604 29.8854 34.8438 28.9062L33.2188 28.125V21.7812H26.8125V28.125L25.1562 28.9062C23.2104 29.8792 21.6667 31.2675 20.525 33.0713C19.3833 34.875 18.8125 36.8512 18.8125 39C18.8125 40.8529 19.2448 42.5765 20.1094 44.1706C20.974 45.7652 22.1325 47.1042 23.585 48.1875ZM15.5031 7.96875C15.0427 7.96875 14.6406 7.79792 14.2969 7.45625C13.9531 7.115 13.7812 6.71396 13.7812 6.25312C13.7812 5.79271 13.9521 5.39062 14.2937 5.04688C14.635 4.70312 15.036 4.53125 15.4969 4.53125C15.9573 4.53125 16.3594 4.70208 16.7031 5.04375C17.0469 5.385 17.2188 5.78604 17.2188 6.24688C17.2188 6.70729 17.0479 7.10938 16.7062 7.45312C16.365 7.79688 15.964 7.96875 15.5031 7.96875ZM44.5031 7.96875C44.0427 7.96875 43.6406 7.79792 43.2969 7.45625C42.9531 7.115 42.7812 6.71396 42.7812 6.25312C42.7812 5.79271 42.9521 5.39062 43.2938 5.04688C43.635 4.70312 44.036 4.53125 44.4969 4.53125C44.9573 4.53125 45.3594 4.70208 45.7031 5.04375C46.0469 5.385 46.2188 5.78604 46.2188 6.24688C46.2188 6.70729 46.0479 7.10938 45.7062 7.45312C45.365 7.79688 44.964 7.96875 44.5031 7.96875ZM21.5031 13.9688C21.0427 13.9688 20.6406 13.7979 20.2969 13.4562C19.9531 13.115 19.7812 12.714 19.7812 12.2531C19.7812 11.7927 19.9521 11.3906 20.2938 11.0469C20.635 10.7031 21.036 10.5312 21.4969 10.5312C21.9573 10.5312 22.3594 10.7021 22.7031 11.0438C23.0469 11.385 23.2188 11.786 23.2188 12.2469C23.2188 12.7073 23.0479 13.1094 22.7062 13.4531C22.365 13.7969 21.964 13.9688 21.5031 13.9688ZM38.5031 13.9688C38.0427 13.9688 37.6406 13.7979 37.2969 13.4562C36.9531 13.115 36.7812 12.714 36.7812 12.2531C36.7812 11.7927 36.9521 11.3906 37.2938 11.0469C37.635 10.7031 38.036 10.5312 38.4969 10.5312C38.9573 10.5312 39.3594 10.7021 39.7031 11.0438C40.0469 11.385 40.2188 11.786 40.2188 12.2469C40.2188 12.7073 40.0479 13.1094 39.7062 13.4531C39.365 13.7969 38.964 13.9688 38.5031 13.9688Z" fill="#333333"/>
</svg>
