<svg width="60" height="60" viewBox="0 0 60 60" fill="none" xmlns="http://www.w3.org/2000/svg">
<path d="M40 26.6562C40.4375 26.6562 40.8281 26.4896 41.1719 26.1562C41.5156 25.8229 41.6875 25.4375 41.6875 25C41.6875 24.5625 41.5156 24.1719 41.1719 23.8281C40.8281 23.4844 40.4375 23.3125 40 23.3125C39.5625 23.3125 39.1771 23.4844 38.8437 23.8281C38.5104 24.1719 38.3437 24.5625 38.3437 25C38.3437 25.4375 38.5104 25.8229 38.8437 26.1562C39.1771 26.4896 39.5625 26.6562 40 26.6562ZM20.0937 20.7812H32.4375V19.1875H20.0937V20.7812ZM13.7331 49.1562C12.5777 44.9271 11.3906 40.7348 10.1719 36.5794C8.95312 32.4235 8.34375 28.1433 8.34375 23.7388C8.34375 20.8525 9.35542 18.3931 11.3787 16.3606C13.4025 14.3285 15.8596 13.3125 18.75 13.3125H32.9412C33.9692 11.9375 35.1762 10.7604 36.5625 9.78125C37.9487 8.80208 39.5112 8.3125 41.25 8.3125C41.3537 8.3125 41.4525 8.3575 41.5462 8.4475C41.6404 8.5375 41.6875 8.63479 41.6875 8.73938C41.6875 8.77646 41.6719 8.81563 41.6406 8.85688C41.6094 8.89854 41.6042 8.93583 41.625 8.96875C41.2708 9.82292 40.9987 10.6873 40.8087 11.5619C40.6192 12.4369 40.4537 13.3225 40.3125 14.2188L48.1562 22.0625H51.6875V33.75L45.25 35.8706L41.25 49.1562H33.3437V44.1562H21.6875V49.1562H13.7331ZM14.9375 47.5625H20.0937V42.5625H34.9375V47.5625H40.0625L43.9494 34.6875L50.0937 32.625V23.6562H47.5312L38.8437 14.9606C38.8437 14.1327 38.8958 13.3229 39 12.5312C39.1042 11.7396 39.3125 10.9583 39.625 10.1875C38.3871 10.5171 37.3121 11.11 36.4 11.9663C35.4875 12.8221 34.7292 13.8021 34.125 14.9062H18.75C16.3162 14.9062 14.239 15.7702 12.5181 17.4981C10.7977 19.2265 9.9375 21.3129 9.9375 23.7575C9.9375 27.8567 10.5 31.8577 11.625 35.7606C12.75 39.6631 13.8542 43.5971 14.9375 47.5625Z" fill="#333333"/>
</svg>
