<svg width="60" height="60" viewBox="0 0 60 60" fill="none" xmlns="http://www.w3.org/2000/svg">
<path d="M11.0625 53.9375V40.3069C11.0625 37.4419 12.0802 34.9869 14.1156 32.9419C16.151 30.8973 18.6125 29.875 21.5 29.875H24.9688V9.71875C24.9688 8.71333 25.3027 7.8525 25.9706 7.13625C26.6385 6.42042 27.4817 6.0625 28.5 6.0625H31.5312C32.53 6.0625 33.3681 6.42042 34.0456 7.13625C34.7235 7.8525 35.0625 8.71333 35.0625 9.71875V29.875H38.4375C41.3533 29.875 43.8323 30.8973 45.8744 32.9419C47.9165 34.9869 48.9375 37.4419 48.9375 40.3069V53.9375H11.0625ZM12.6562 52.3438H20.125V43.1562C20.125 42.9529 20.204 42.7719 20.3619 42.6131C20.5194 42.4544 20.7069 42.375 20.9244 42.375C21.1415 42.375 21.3281 42.4544 21.4844 42.6131C21.6406 42.7719 21.7188 42.9529 21.7188 43.1562V52.3438H29.2188V43.1562C29.2188 42.9529 29.2925 42.7719 29.44 42.6131C29.5871 42.4544 29.7746 42.375 30.0025 42.375C30.23 42.375 30.4219 42.4544 30.5781 42.6131C30.7344 42.7719 30.8125 42.9529 30.8125 43.1562V52.3438H38.2812V43.1562C38.2812 42.9529 38.355 42.7719 38.5025 42.6131C38.6496 42.4544 38.8371 42.375 39.065 42.375C39.2925 42.375 39.4844 42.4544 39.6406 42.6131C39.7969 42.7719 39.875 42.9529 39.875 43.1562V52.3438H47.3438V40.3312C47.3438 37.8396 46.4779 35.7396 44.7463 34.0312C43.0142 32.3229 40.9113 31.4688 38.4375 31.4688H21.5144C19.0535 31.4688 16.9621 32.3329 15.24 34.0613C13.5175 35.7896 12.6562 37.8754 12.6562 40.3187V52.3438ZM33.4688 29.875V9.71875C33.4688 9.13542 33.276 8.64583 32.8906 8.25C32.5052 7.85417 32.0521 7.65625 31.5312 7.65625H28.5C27.9583 7.65625 27.5 7.85417 27.125 8.25C26.75 8.64583 26.5625 9.13542 26.5625 9.71875V29.875H33.4688Z" fill="#333333"/>
</svg>
