<svg width="629" height="72" viewBox="0 0 629 72" fill="none" xmlns="http://www.w3.org/2000/svg">
<path d="M24.304 25.118C22.32 23.506 19.53 21.77 17.856 20.902L18.662 19.352C21.08 20.22 23.87 21.398 26.102 22.7C30.256 25.18 31.372 27.164 31.372 28.652C31.372 29.52 30.938 30.14 30.07 30.14C28.83 30.14 27.59 27.66 24.304 25.118ZM17.05 58.102C20.088 58.102 42.16 45.826 53.568 29.272L55.118 30.264C47.74 42.602 34.968 52.708 21.204 60.086C20.274 60.644 19.716 62.07 18.29 62.07C16.616 62.07 12.834 59.528 11.656 57.916C11.036 57.11 10.478 55.188 10.354 54.568L11.408 53.948C13.268 56.18 15.128 58.102 17.05 58.102ZM16.492 36.65C14.322 35.1 12.214 33.86 9.362 32.434L10.106 30.946C13.454 31.938 15.748 32.806 18.352 34.108C21.886 35.844 23.436 37.952 23.436 39.75C23.436 40.494 22.816 41.052 22.196 41.052C20.708 41.052 19.778 39.006 16.492 36.65ZM76.8558 22.638L77.7238 21.212C84.1718 23.568 92.0458 27.97 92.0458 32.124C92.0458 33.178 91.4878 33.674 90.6818 33.674C90.0618 33.674 89.4418 33.178 87.8298 31.38C84.7918 27.97 82.1258 25.862 76.8558 22.638ZM82.7458 56.862C86.7758 56.862 108.786 40.618 117.59 26.854L119.14 27.846C111.514 40.928 99.8578 50.476 86.5898 59.094C85.7218 59.652 85.0398 61.016 83.8618 61.016C81.9398 61.016 78.4058 58.412 77.1658 56.738C76.6078 55.87 76.0498 54.072 75.9258 53.39L76.9178 52.708C78.9638 55.002 80.8858 56.862 82.7458 56.862ZM184.488 25.18C180.892 25.18 178.04 22.328 178.04 18.732C178.04 15.198 180.892 12.346 184.488 12.346C188.022 12.346 190.874 15.198 190.874 18.732C190.874 22.328 188.022 25.18 184.488 25.18ZM184.488 14.206C181.946 14.206 179.9 16.252 179.9 18.732C179.9 21.274 181.946 23.32 184.488 23.32C186.968 23.32 189.014 21.274 189.014 18.732C189.014 16.252 186.968 14.206 184.488 14.206ZM140.964 23.692C141.708 25.118 142.948 27.226 145.118 27.226C148.032 27.226 169.422 24.932 172.212 24.374C173.452 24.126 173.886 23.196 174.692 23.196C176.118 23.196 179.9 25.924 179.9 27.474C179.9 28.528 178.288 29.148 177.482 31.194C171.344 46.818 160.37 58.35 142.762 65.542L141.77 64.054C159.874 55.064 170.91 42.664 175.064 27.784C175.374 26.668 174.94 26.606 174.196 26.606C172.088 26.606 152.93 28.962 149.396 29.706C147.598 30.078 146.358 31.132 145.242 31.132C143.754 31.132 141.026 28.652 140.406 27.412C140.096 26.792 139.848 25.924 139.662 24.188L140.964 23.692ZM219.949 23.506L219.825 22.08C221.251 21.708 222.243 21.584 223.483 21.584C225.653 21.584 229.249 23.444 229.249 24.684C229.249 25.924 228.133 25.862 228.009 27.598C227.823 30.14 227.265 48.554 227.265 53.328C227.265 54.072 227.575 54.196 228.071 54.01C237.867 49.794 246.547 42.912 251.817 36.65L253.243 37.828C247.849 45.082 238.735 52.026 229.931 56.676C228.443 57.482 227.823 59.094 226.769 59.094C225.777 59.094 223.793 56.738 223.793 55.808C223.793 54.754 224.413 54.63 224.599 52.15C224.847 48.43 225.281 31.38 224.909 25.428C224.847 23.94 223.235 23.63 219.949 23.506ZM212.881 32.558C212.881 30.698 209.347 30.078 208.107 29.954V28.528C208.851 28.404 210.091 28.218 211.207 28.342C213.129 28.59 217.035 30.698 217.035 32.31C217.035 33.488 215.919 33.612 215.609 35.1C213.563 44.214 208.231 53.824 197.629 61.016L196.451 59.59C206.495 52.212 212.881 39.44 212.881 32.558ZM278.663 39.75L280.151 40.494C278.849 43.718 275.749 51.406 274.943 53.762C274.323 55.436 273.827 56.924 273.827 58.04C273.827 59.714 275.005 61.636 275.005 62.938C275.005 63.682 274.571 64.178 273.765 64.178C272.835 64.178 272.029 63.248 271.347 62.07C269.983 59.776 267.875 53.886 267.875 48.616C267.875 40.494 269.921 35.782 270.913 32.062C271.657 29.086 272.463 27.04 272.525 25.304C272.587 23.32 271.223 21.522 268.929 19.104L270.107 18.236C271.037 18.794 271.719 19.29 272.525 20.034C273.579 21.026 276.059 23.63 276.059 25.924C276.059 27.164 275.253 28.28 273.703 32.31C272.463 35.596 270.107 41.052 270.107 47.624C270.107 51.406 270.665 52.646 271.161 53.514C271.533 54.196 271.967 54.32 272.463 53.514C273.765 51.406 277.361 42.912 278.663 39.75ZM284.925 46.384L286.537 46.074C286.909 47.624 287.529 50.166 288.397 51.778C290.381 55.25 293.791 57.606 301.417 57.606C308.237 57.606 310.531 56.552 312.143 56.552C313.383 56.552 314.499 56.862 314.499 57.854C314.499 59.838 308.981 60.52 302.595 60.52C293.729 60.52 288.273 58.04 286.103 52.088C285.421 50.228 285.049 48.182 284.925 46.384ZM287.963 27.66L287.343 25.924C292.365 23.816 297.387 22.948 301.603 22.948C305.943 22.948 308.237 23.32 310.221 24.064C311.275 24.436 311.833 25.18 311.833 25.8C311.833 26.234 311.585 26.73 310.407 26.854C309.043 26.978 307.803 27.164 305.943 28.094C303.277 29.458 298.751 32.186 295.775 34.046L294.659 32.806C297.449 30.946 302.409 27.536 303.773 26.42C304.579 25.738 304.393 25.428 300.487 25.428C297.697 25.428 293.171 25.862 287.963 27.66ZM327.085 53.576L327.891 52.46C334.959 55.126 338.555 58.412 340.539 61.202C341.655 62.814 342.089 63.992 342.089 65.356C342.089 66.906 341.283 67.65 340.167 67.65C339.051 67.65 338.431 66.906 337.563 65.046C335.517 60.706 332.603 57.234 327.085 53.576Z" fill="#333333"/>
<path d="M375.51 12.532L376.068 11.912C388.158 14.454 386.608 22.266 382.888 20.282C381.896 17.554 378.362 14.268 375.51 12.532ZM371.17 26.854L371.728 26.172C383.57 28.032 382.268 35.596 378.61 33.736C377.494 31.256 374.022 28.28 371.17 26.854ZM387.848 23.072L389.088 23.382C386.546 30.946 381.462 45.144 380.594 47.934C380.098 49.732 379.664 51.592 379.726 53.08C379.726 55.622 381.214 58.722 380.966 63.62C380.842 66.038 379.912 67.526 378.238 67.526C377.246 67.526 376.812 66.286 376.812 64.488C377.556 58.226 377.122 53.7 375.82 52.832C375.076 52.274 374.27 52.15 372.906 52.026V50.6H375.572C376.192 50.6 376.44 50.538 376.998 49.298C377.99 47.19 377.99 47.19 387.848 23.072ZM396.838 53.886H418.538V47.934H396.838V53.886ZM418.538 40.556H396.838V46.074H418.538V40.556ZM417.918 38.82L419.53 36.712L423.994 40.06C423.622 40.494 422.506 41.052 421.266 41.238V62.752C421.266 65.232 420.708 67.03 415.686 67.588C415.5 66.72 415.128 65.914 414.26 65.418C413.268 64.86 411.47 64.488 408.494 64.178V63.124C408.494 63.124 415.562 63.682 416.926 63.682C418.228 63.682 418.538 63.31 418.538 62.318V55.746H396.838V66.534C396.838 66.844 395.846 67.588 394.668 67.588H394.172V37.27L397.21 38.82H417.918ZM420.832 32L423.25 29.024C423.25 29.024 425.916 31.194 427.652 32.806C427.528 33.488 426.908 33.798 426.04 33.798H388.902L388.406 32H405.766V26.544H392.25L391.816 24.684H405.766V19.724H390.948L390.452 17.864H405.766V11.788L410.788 12.408C410.664 13.276 409.982 13.896 408.494 14.144V17.864H419.468L421.824 14.95C421.824 14.95 424.49 17.058 426.226 18.732C426.04 19.414 425.482 19.724 424.614 19.724H408.494V24.684H417.918L420.336 21.77C420.336 21.77 423.002 23.94 424.676 25.552C424.552 26.234 423.994 26.544 423.126 26.544H408.494V32H420.832ZM453.506 18.918L453.01 17.058H461.008V11.478L465.782 11.974C465.72 12.78 465.1 13.338 463.736 13.524V17.058H466.836L469.068 14.392C469.068 14.392 471.548 16.314 473.16 17.926C472.974 18.608 472.416 18.918 471.548 18.918H463.736V24.002H466.278L468.448 21.398C468.448 21.398 470.804 23.382 472.354 24.87C472.168 25.552 471.61 25.862 470.804 25.862H463.736V31.504C466.588 30.946 469.626 30.388 472.726 29.83L472.912 30.884C468.572 32.124 462.558 33.984 454.56 36.092C454.312 36.774 453.816 37.208 453.32 37.394L451.336 33.488C453.382 33.24 456.854 32.682 461.008 31.938V25.862H454.684L454.188 24.002H461.008V18.918H453.506ZM467.642 34.17L471.858 36.712C471.486 37.27 470.68 37.704 469.502 37.394C467.766 39.13 465.844 41.052 464.108 42.664C467.332 45.392 466.092 48.12 463.736 47.128C462.372 44.772 458.59 41.672 455.8 40.122L456.42 39.44C459.21 40.06 461.256 40.866 462.744 41.734C464.17 39.564 466.03 36.774 467.642 34.17ZM441.292 12.656L441.85 12.036C453.63 14.082 452.266 21.46 448.608 19.724C447.43 17.244 444.02 14.268 441.292 12.656ZM437.448 25.986L438.068 25.366C449.166 26.668 447.616 34.17 443.958 32.31C443.028 30.016 440.052 27.35 437.448 25.986ZM452.08 23.754L453.32 24.002C450.84 31.504 446.066 45.392 445.322 48.12C444.826 49.918 444.454 51.716 444.454 53.204C444.454 55.684 445.756 58.846 445.57 63.682C445.446 66.1 444.64 67.526 442.966 67.526C441.974 67.526 441.602 66.286 441.602 64.488C442.346 58.288 441.974 53.824 440.734 52.956C439.928 52.398 439.122 52.274 437.82 52.15V50.724H440.486C441.106 50.724 441.292 50.724 441.788 49.422C442.718 47.376 442.718 47.376 452.08 23.754ZM450.902 66.1L450.158 65.17C454.808 62.566 459.768 57.978 462.124 54.568L466.464 56.862C466.03 57.482 465.596 57.668 464.232 57.358C461.442 60.334 456.11 63.992 450.902 66.1ZM480.352 44.462L481.034 43.904C494.922 48.368 493.558 56.49 489.838 54.382C489.28 53.08 488.288 51.654 486.986 50.29C483.08 50.6 478.616 50.972 473.408 51.344V66.534C473.408 66.782 472.354 67.588 470.804 67.588H470.308V51.53C465.596 51.84 460.388 52.15 454.56 52.46C454.188 53.204 453.506 53.576 453.01 53.7L451.336 49.67C454.622 49.67 459.954 49.608 466.464 49.484C470.246 45.578 475.082 40.246 478.244 36.526L482.584 38.882C482.15 39.564 481.282 39.874 479.856 39.626C476.942 42.354 472.602 46.26 468.634 49.422C473.842 49.298 479.67 49.174 485.746 48.988C484.072 47.252 482.088 45.64 480.352 44.462ZM478.058 55.932L478.678 55.25C495.046 59.962 494.178 67.34 490.21 65.79C487.916 62.876 482.026 58.35 478.058 55.932ZM490.334 13.276L494.178 16.376C493.806 16.872 493.062 17.12 491.884 17.244C491.512 28.032 490.458 33.488 488.598 35.348C487.42 36.402 485.622 36.96 483.886 36.96C483.886 36.216 483.7 35.41 483.018 34.914C482.398 34.542 480.662 34.108 479.112 33.922V32.806C480.972 32.93 484.01 33.178 485.064 33.178C486.056 33.178 486.428 33.116 486.924 32.682C488.102 31.566 488.846 26.544 489.218 17.058H482.46C481.902 23.196 480.166 30.512 472.354 36.03L471.362 35.038C477.81 29.334 479.112 22.576 479.484 17.058H473.842L473.346 15.26H488.66L490.334 13.276ZM520.28 39.75L521.768 40.494C520.466 43.718 517.366 51.406 516.56 53.762C515.94 55.436 515.444 56.924 515.444 58.04C515.444 59.714 516.622 61.636 516.622 62.938C516.622 63.682 516.188 64.178 515.382 64.178C514.452 64.178 513.646 63.248 512.964 62.07C511.6 59.776 509.492 53.886 509.492 48.616C509.492 40.494 511.538 35.782 512.53 32.062C513.274 29.086 514.08 27.04 514.142 25.304C514.204 23.32 512.84 21.522 510.546 19.104L511.724 18.236C512.654 18.794 513.336 19.29 514.142 20.034C515.196 21.026 517.676 23.63 517.676 25.924C517.676 27.164 516.87 28.28 515.32 32.31C514.08 35.596 511.724 41.052 511.724 47.624C511.724 51.406 512.282 52.646 512.778 53.514C513.15 54.196 513.584 54.32 514.08 53.514C515.382 51.406 518.978 42.912 520.28 39.75ZM526.542 46.384L528.154 46.074C528.526 47.624 529.146 50.166 530.014 51.778C531.998 55.25 535.408 57.606 543.034 57.606C549.854 57.606 552.148 56.552 553.76 56.552C555 56.552 556.116 56.862 556.116 57.854C556.116 59.838 550.598 60.52 544.212 60.52C535.346 60.52 529.89 58.04 527.72 52.088C527.038 50.228 526.666 48.182 526.542 46.384ZM529.58 27.66L528.96 25.924C533.982 23.816 539.004 22.948 543.22 22.948C547.56 22.948 549.854 23.32 551.838 24.064C552.892 24.436 553.45 25.18 553.45 25.8C553.45 26.234 553.202 26.73 552.024 26.854C550.66 26.978 549.42 27.164 547.56 28.094C544.894 29.458 540.368 32.186 537.392 34.046L536.276 32.806C539.066 30.946 544.026 27.536 545.39 26.42C546.196 25.738 546.01 25.428 542.104 25.428C539.314 25.428 534.788 25.862 529.58 27.66ZM577.506 68.022C572.732 68.022 568.826 64.116 568.826 59.342C568.826 54.568 572.732 50.724 577.506 50.724C582.28 50.724 586.124 54.568 586.124 59.342C586.124 64.116 582.28 68.022 577.506 68.022ZM577.506 52.708C573.786 52.708 570.81 55.684 570.81 59.342C570.81 63 573.786 66.038 577.506 66.038C581.164 66.038 584.14 63 584.14 59.342C584.14 55.684 581.164 52.708 577.506 52.708Z" fill="#333333"/>
</svg>
