<svg width="250" height="170" viewBox="0 0 250 170" fill="none" xmlns="http://www.w3.org/2000/svg">
<g clip-path="url(#clip0_219_37)">
<path d="M12.1741 94.5778C15.6183 100.116 17.0983 106.698 17.0983 115.68C17.0983 120.911 16.6073 125.153 15.5638 128.598C13.9064 134.259 11.1374 136.475 6.58137 136.844C6.0903 134.197 5.29232 132.97 2.27772 132.11L2.46187 131.005C4.2488 131.251 5.41509 131.312 6.8269 131.312C8.67521 131.312 10.0256 130.514 11.0078 127.438C11.9899 124.362 12.4878 120.12 12.4878 115.503C12.4878 114.029 12.4878 112.611 12.4264 111.322C9.47319 116.614 5.722 121.47 1.10462 125.413L0.306641 124.615C2.89155 121.293 5.16955 117.665 7.01105 113.852C8.79798 110.224 10.2098 106.411 11.4375 102.53C11.0692 100.621 10.5167 98.7178 9.83467 96.8695C7.06561 99.4544 4.1124 101.732 0.913652 103.758L0.177054 102.96C3.19165 100.13 5.89933 96.9922 8.36148 93.6707C8.11594 93.3024 7.9318 92.8727 7.68626 92.5044C6.4586 90.4106 4.97858 88.4463 3.444 86.5366L4.1806 85.7387C6.21307 87.4574 8.23871 89.3057 9.96426 91.3995C11.9353 88.4463 13.7768 85.309 15.3796 81.9261C21.1019 84.4496 21.4702 84.9407 21.4702 85.6159C21.4702 86.2297 20.795 86.8436 18.4556 86.9049C16.7914 89.4285 14.643 92.0748 12.1809 94.5915L12.1741 94.5778ZM29.3409 94.3937C29.3409 98.0221 29.2181 100.361 29.2181 101.589C29.2181 102.326 29.6478 102.694 30.5072 102.694C32.5396 102.694 34.1356 101.712 34.1356 100.662C34.1356 99.6795 34.0128 97.5856 34.0128 94.3869H42.32C42.32 98.0153 42.1972 100.355 42.1972 101.582C42.1972 102.319 42.6269 102.687 43.4863 102.687C45.5188 102.687 47.1147 101.705 47.1147 100.655C47.1147 99.6726 46.992 97.5788 46.992 94.38H57.6931C58.3069 94.38 58.6752 93.9504 58.6752 93.2751C58.6752 92.7227 58.6138 92.1089 53.3826 87.3687C52.0936 88.6578 50.9205 90.015 49.877 91.3041H46.9238V86.1956C48.6493 85.5204 49.079 84.9611 49.079 84.4087C49.079 83.7335 48.5879 83.3038 42.1904 82.7513C42.3746 85.3976 42.3746 86.8708 42.3746 90.0696V91.3041H33.9446V86.1956C35.6702 85.5204 36.0999 84.9611 36.0999 84.4087C36.0999 83.7335 35.6088 83.3038 29.2113 82.7513C29.3954 85.3976 29.3954 86.8708 29.3954 90.0696V91.3041H23.6732L18.135 90.9971V94.687L23.6732 94.38H29.3341L29.3409 94.3937ZM49.5769 132.785H27.247V134.634C27.247 135.984 25.5283 136.85 23.7414 136.85C22.7592 136.85 22.3909 136.482 22.3909 135.684C22.3909 133.59 22.6979 127.377 22.6979 115.073C22.6979 109.351 22.6979 107.195 22.5137 104.249C23.9869 104.802 25.4669 105.293 26.9401 105.906H49.5769C50.3748 104.249 50.8045 103.997 51.357 103.997C52.0322 103.997 52.5233 104.181 54.1874 105.538C55.9675 107.08 56.2199 107.448 56.2199 108C56.2199 108.676 55.913 109.105 54.1874 109.91V115.325C54.1874 126.463 54.4943 131.687 54.4943 133.597C54.4943 134.702 52.9529 135.568 50.8659 135.568C50.0679 135.568 49.5769 135.138 49.5769 134.463V132.806V132.785ZM40.3489 117.528H49.5769V108.976H41.2083C41.0241 109.283 40.7172 109.467 40.3489 109.589V117.521V117.528ZM35.8611 120.604H27.247V129.709H35.8611V120.604ZM35.8611 108.982H27.4926L27.247 109.289V117.535H35.8611V108.982ZM49.5769 129.709V120.604H40.3489V129.709H49.5769ZM74.0687 93.0978C74.3757 92.7295 74.6212 92.2384 74.6212 91.7474C74.6212 90.888 73.5163 89.7149 71.9135 88.7328C70.2494 87.6893 68.9603 87.1914 67.9782 87.1914C67.1188 87.1914 65.6388 87.3755 64.5953 87.6824V88.9169C66.4436 89.2239 67.2416 89.6535 67.794 90.2674C68.3465 90.8198 68.4692 91.686 68.4692 93.0364C68.592 96.4807 68.592 99.8636 68.592 103.744C68.592 107.625 68.592 111.799 68.5306 117.03C68.4692 124.778 68.1009 129.518 68.1009 130.808C68.1009 132.219 68.1009 133.638 68.8989 134.682C69.5741 135.602 70.1266 135.848 70.9314 135.848C72.3432 135.848 73.148 134.497 73.148 132.649C73.148 125.331 73.0252 116.655 73.0252 108.655C77.5199 109.944 81.1483 112.468 83.9105 115.851C84.8927 117.14 85.8202 118.006 87.1706 118.006C88.5211 118.006 89.7556 116.778 89.7556 114.991C89.7556 112.652 87.8459 110.565 83.6036 108.901C80.4662 107.673 76.5923 106.991 73.0252 106.684C73.0252 102.258 73.0866 98.7519 73.148 96.1056C73.148 94.8165 73.3322 93.889 74.0687 93.091V93.0978ZM91.8494 121.293C99.686 117.521 106.888 112.236 114.609 104.979C114.841 105.504 114.957 106.254 114.957 107.359C114.957 113.395 114.902 118.449 114.779 122.507C114.779 124.772 114.609 125.76 114.486 126.456C114.309 127.213 114.193 128.195 114.193 128.605C114.193 131.912 115.646 133.89 117.098 133.89C118.551 133.89 119.301 133.079 119.301 130.351C119.301 128.086 119.185 123.271 119.185 118.51C119.124 114.623 119.124 110.906 119.124 108.757C119.124 107.073 119.301 105.852 119.301 105.388C119.301 104.515 118.892 103.765 117.037 102.599C119.649 99.9864 121.272 98.1858 123.653 95.4577C124.928 93.889 125.453 93.5411 126.149 93.2547C126.845 92.9614 127.254 92.559 127.254 91.686C127.254 90.3492 124.642 88.2622 122.377 87.5665C121.682 87.2732 120.925 87.2187 120.174 87.2187C119.363 87.2187 118.435 87.3346 117.446 87.4506L117.385 88.5555C119.711 89.0806 120.461 89.9468 120.461 90.472C120.461 90.9358 120.29 91.3995 119.82 92.0952C117.439 95.5804 113.9 99.8772 110.244 103.649C104.726 109.453 98.1105 115.489 91.0855 120.134L91.8426 121.293H91.8494ZM175.112 102.223L173.987 101.2C164.118 110.899 153.928 117.972 143.507 122.903C143.207 123.053 142.907 123.135 142.722 123.148C142.231 123.189 142.013 122.773 141.945 121.852C141.358 114.186 141.665 100.58 141.849 95.9624C141.911 94.2982 142.034 93.0091 142.709 92.2725C143.2 91.6587 143.445 91.2904 143.445 90.6766C143.445 90.0628 142.647 89.3262 141.597 88.6441C139.994 87.6006 138.214 87.0413 137.171 87.0413C136.25 87.0413 134.709 87.1641 133.113 87.5324V88.8828C135.268 89.1284 136.25 89.8036 136.68 90.5402C136.987 91.0926 137.109 92.2589 137.109 93.432C137.109 100.259 136.918 114.268 137.403 120.584C137.525 122.18 137.512 122.855 137.382 123.544C137.293 123.98 137.218 124.608 137.246 124.976C137.293 125.59 137.791 126.415 139.305 127.657C140.888 128.952 141.986 129.607 142.538 129.566C143.152 129.518 143.555 129.116 143.896 128.721C144.407 128.189 145.069 127.888 146.187 127.247C156.888 121.123 167.658 112.775 175.119 102.21L175.112 102.223ZM205.545 19.0561H213.484V14.4114H205.545C204.638 14.4114 203.901 15.148 203.901 16.0551V17.4055C203.901 18.3126 204.638 19.0492 205.545 19.0492V19.0561ZM237.375 17.4124V16.0619C237.375 15.1548 236.639 14.4182 235.732 14.4182H227.438V19.0629H235.732C236.639 19.0629 237.375 18.3263 237.375 17.4192V17.4124ZM222.964 1.64371C222.964 0.736598 222.227 0 221.32 0H219.97C219.063 0 218.326 0.736598 218.326 1.64371V9.41209H222.971V1.64371H222.964ZM219.963 33.4743H221.313C222.22 33.4743 222.957 32.7377 222.957 31.8306V23.3597H218.312V31.8306C218.312 32.7377 219.049 33.4743 219.956 33.4743H219.963ZM208.839 48.4859H214.868C215.775 48.4859 216.512 47.7493 216.512 46.8422V45.4917C216.512 44.5846 215.775 43.848 214.868 43.848H208.839V48.4927V48.4859ZM190.676 45.4849V46.8354C190.676 47.7425 191.413 48.4791 192.32 48.4791H198.076V43.8344H192.32C191.413 43.8344 190.676 44.571 190.676 45.4781V45.4849ZM205.913 34.8929C205.913 33.9858 205.176 33.2492 204.269 33.2492H202.919C202.012 33.2492 201.275 33.9858 201.275 34.8929V40.5129H205.92V34.8929H205.913ZM202.919 59.0847H204.269C205.176 59.0847 205.913 58.3481 205.913 57.441V51.2754H201.268V57.441C201.268 58.3481 202.005 59.0847 202.912 59.0847H202.919ZM245.887 107.591L200.15 71.0203C198.868 70.0041 196.965 70.5907 196.48 72.1525C196.33 72.6368 192.695 83.9381 179.089 85.2749C158.648 87.2869 152.012 103.86 151.739 104.57C151.371 105.518 151.664 106.588 152.455 107.223L155.088 109.323C156.425 108.478 157.782 107.591 159.153 106.629L158.355 105.988C157.42 105.245 157.209 103.922 157.85 102.912C160.674 98.4859 167.16 91.1131 179.546 89.8991C189.851 88.8828 195.498 83.1537 198.356 78.741C199.093 77.602 200.668 77.3769 201.732 78.2294L240.158 108.948C241.072 109.678 241.29 110.96 240.697 111.963C238.569 115.55 233.904 120.952 224.833 121.846C211.226 123.182 203.737 130.978 200.17 136.25C199.42 137.362 197.865 137.573 196.815 136.734L170.263 115.509C169.09 116.58 167.89 117.603 166.676 118.585L198.192 143.787C199.413 144.762 201.227 144.278 201.8 142.825C202.032 142.225 207.748 128.189 225.276 126.463C242.047 124.812 246.48 110.667 246.658 110.067C246.931 109.16 246.624 108.178 245.88 107.584L245.887 107.591ZM235.172 40.3628C238.044 45.0416 239.551 50.3751 239.551 55.9405C239.551 64.8615 235.561 73.2642 228.761 78.9183C227.609 79.88 227.343 81.5441 228.195 82.7786L230.882 86.6662C231.824 88.0235 233.733 88.3304 235.015 87.2937C244.448 79.6685 249.993 68.1558 249.993 55.9405C249.993 48.1721 247.817 40.7311 243.67 34.2586C242.845 32.9764 241.099 32.6627 239.878 33.5698L235.882 36.5366C234.681 37.4301 234.388 39.0806 235.165 40.356L235.172 40.3628ZM216.28 76.729L216.635 77.8407C216.928 78.7546 217.937 79.2252 218.831 78.8774C228.202 75.1603 234.374 66.1574 234.374 55.9405C234.374 49.9454 232.253 44.2777 228.359 39.7968C227.724 39.067 226.613 39.0192 225.822 39.8104L225.105 40.5265C224.498 41.1335 224.458 42.102 225.017 42.7431C228.181 46.4125 229.914 51.0435 229.914 55.9405C229.914 64.3023 224.867 71.6751 217.207 74.7238C216.423 75.0375 216.028 75.9242 216.28 76.729ZM47.4285 21.4909L46.9374 22.5344C48.5947 23.6393 49.6451 25.3649 50.3203 27.3974C50.75 28.6864 51.6093 29.3071 52.6597 29.3071C54.0715 29.3071 55.1832 28.3249 55.1832 26.7221C55.1832 24.5055 53.1507 21.982 47.4285 21.4909ZM17.9032 66.1506C19.997 71.8115 20.5494 71.9547 21.3474 71.9547C22.084 71.9547 22.6365 72.1184 23.0048 70.3997C29.8933 68.6196 36.3522 66.2802 43.2408 63.2042L42.8725 62.0993C39.4282 62.8973 35.9839 63.5793 32.4782 64.2545V51.8279C32.7852 51.6437 33.0921 51.4596 33.2762 51.1526H39.6123C40.2262 51.1526 40.5945 50.6616 40.5945 49.9864C40.5945 49.3725 40.2262 48.6973 35.7316 44.4482C34.4971 45.6827 33.5149 46.7876 32.4714 48.0153H25.1532L20.2289 47.7084V51.4596L25.1532 51.1526H27.7381V64.9911C24.478 65.4208 21.1565 65.7891 17.8963 66.1574L17.9032 66.1506ZM39.6192 29.2457C39.6192 30.6575 39.6192 32.0761 39.6805 33.4265H29.0408L23.3185 33.1196V36.8094L29.0408 36.5025H39.7419C40.4171 52.9259 43.4317 62.8496 48.5402 70.2292C50.7568 73.4893 52.8438 74.9079 55.306 74.9079C56.8474 74.9079 57.8295 73.803 57.8295 72.3844C57.8295 71.0954 56.8474 71.1363 56.8474 69.6563C56.8474 68.1762 57.2157 66.2734 58.1364 62.2766L57.0929 61.847C56.4791 63.3884 55.6197 65.414 54.8763 66.8326C54.4466 67.6306 54.0783 68.0603 53.5872 68.0603C53.0348 68.0603 52.6051 67.7534 51.8003 66.5871C47.7422 60.3738 45.0959 51.6369 44.4207 36.5025H56.4791C57.0929 36.5025 57.4612 36.0115 57.4612 35.3362C57.4612 34.661 57.0929 33.9858 51.7389 29.3071C50.2589 30.7803 49.0926 32.0147 47.9263 33.4265H44.3593C44.2979 32.0147 44.2979 30.5961 44.2979 29.1229V23.462C46.0166 22.9096 46.5759 22.3571 46.5759 21.7978C46.5759 21.0612 45.7165 20.6316 39.4418 20.0177C39.626 22.6026 39.626 25.4945 39.626 29.2457H39.6192ZM3.50539 57.9116C4.1806 57.9116 4.5489 57.3592 4.85582 55.8178C6.20625 55.1425 7.50211 54.4673 8.72978 53.7853V68.49C8.72978 69.9018 8.36148 70.4611 6.82008 70.4611C4.78761 70.4611 3.55995 70.3383 1.40472 70.0928L1.28195 70.5429C4.91038 71.4637 6.20625 72.6368 6.75869 75.2149C11.5534 75.2149 13.6473 73.7826 13.6473 70.4611C13.6473 68.4286 13.4017 65.1685 13.279 51.1458C16.5391 49.1747 19.6764 47.0263 23.1207 44.4414L22.5683 43.4593C19.4309 44.8711 16.4163 46.167 13.279 47.456C13.279 44.1959 13.279 40.8744 13.2176 37.6142H21.1496C21.7635 37.6142 22.0704 37.1846 22.0704 36.5093C22.0704 35.8955 21.7021 35.1589 17.5144 30.9712C16.4709 32.1375 15.4205 33.3106 14.4384 34.5383H13.2107V23.653C15.2432 22.9164 15.7343 22.4253 15.7343 21.8047C15.7343 21.1295 14.8749 20.6384 8.53881 20.0246C8.66157 22.3026 8.72296 25.133 8.72296 30.1119V34.5383H5.21729L0.545353 34.2313V37.9212L5.21729 37.6142H8.72296V49.2429C6.01528 50.2251 3.12345 51.214 -0.013916 52.1962C2.26408 57.366 2.75515 57.9184 3.49175 57.9184L3.50539 57.9116ZM72.9843 24.9011L72.5751 25.8969C74.8531 27.0086 75.5556 28.1749 75.5556 28.9388C75.5556 29.8731 74.8531 30.9235 73.8028 32.2125C70.529 36.0728 66.2663 40.3969 61.9967 44.837C60.5917 46.2966 60.128 47.4697 60.128 48.8678C60.128 50.5047 60.9464 51.7869 62.29 52.8987C63.8655 54.2423 65.4478 55.5859 67.1393 57.1068C71.818 61.5469 74.4916 66.3075 76.9469 71.2727C77.704 72.6777 78.3519 72.3708 79.2863 72.3708C80.6299 72.3708 81.7416 71.7433 81.7416 69.9291C81.7416 69.1106 81.5098 68.3536 80.9232 67.4192C79.4023 64.9639 77.1243 62.338 74.1438 59.4735C71.2178 56.6703 69.2468 54.1877 65.8025 51.33C64.3975 50.1637 63.7564 49.3453 63.7564 48.4109C63.7564 47.5924 64.227 46.8899 65.1 46.1329C66.9688 44.496 68.9535 42.7432 71.4702 40.4652C73.8096 38.419 75.6784 36.7276 78.0723 34.6815C78.5975 34.2723 79.5932 33.6312 80.4117 33.2765C81.462 32.8673 81.8167 32.4581 81.8167 31.701C81.8167 31.2304 81.7007 30.7052 81.4075 30.2414C80.1184 28.4272 79.0135 27.4928 77.9564 26.7358C76.4968 25.6854 75.1532 25.0989 72.9911 24.9216L72.9843 24.9011ZM87.9959 39.3944C89.6601 42.409 92.1291 43.6503 94.6185 43.5821C96.0371 43.548 98.5197 43.3092 100.716 42.7977C97.3125 51.214 93.8887 59.0029 90.1171 66.5189C89.4146 67.9512 88.9371 69.097 88.9576 69.8336C88.9849 70.9112 89.9193 71.2454 90.8809 71.2181C92.1836 71.184 93.0157 71.0817 93.5954 69.6563C97.0533 61.0694 100.504 52.2575 104.651 41.7269C107.625 40.7448 109.76 40.0628 111.553 39.3398C113.572 38.5486 114.07 38.0303 114.043 36.9527C114.016 35.8751 112.87 35.2817 111.171 35.3294C110.551 35.3431 109.93 35.4727 109.487 35.8819C108.655 36.5298 107.427 37.2391 106.083 37.7302C106.725 36.2434 107.1 35.3226 107.577 34.1768C107.959 33.4879 108.559 32.8468 109.003 32.4376C109.391 32.0284 109.664 31.626 109.644 30.9508C109.623 30.2142 109.207 29.4298 107.775 28.6796C105.824 27.5951 103.655 27.0291 102.748 27.0563C101.841 27.0768 100.661 27.3974 99.3723 27.9362L99.5701 28.9524C102.523 29.157 104.242 29.9618 104.276 31.3804C104.29 32.0011 104.037 33.2015 103.778 34.1086C103.151 36.1615 102.68 37.5324 102.039 39.0261C98.5538 39.9673 95.9553 40.3151 93.916 40.3697C92.3882 40.4106 90.3967 40.1241 88.7734 38.6373L88.0027 39.3944H87.9959ZM115.884 30.1869C118.067 31.3736 119.881 33.4811 120.884 35.043C121.886 36.6594 122.364 37.4983 123.496 37.4642C124.573 37.4369 125.344 36.6253 125.303 35.2067C125.269 33.9585 124.444 32.7377 123.346 31.9124C121.613 30.5961 118.756 29.6549 116.198 29.2661L115.884 30.1801V30.1869ZM107.591 49.6726C110.646 48.1926 113.572 48.2267 117.139 48.0971L113.777 50.8321L114.268 51.3845C116.041 50.7093 118.647 49.3589 122.5 49.543C123.462 49.5908 125.392 49.7545 126.36 49.7272C127.772 49.6931 128.495 49.1065 128.468 48.0835C128.441 47.0673 128.025 46.2829 126.708 45.8055C125.051 45.1712 122.493 44.9529 119.724 45.028C115.414 45.1371 111.131 46.2352 107.454 48.2335L107.591 49.6726ZM105.476 62.4608C105.94 69.0152 110.946 72.2889 122.295 71.4841C125.399 71.2659 128.086 70.7339 129.191 70.2565C130.016 69.8541 130.364 69.1516 130.303 68.3604C130.2 66.894 129.054 65.9528 126.006 66.1711C125.331 66.2188 124.498 66.5053 123.946 66.7167C123.168 66.9418 121.879 67.1464 119.281 67.3305C112.106 67.842 108.191 66.2461 107.85 61.4446C107.693 59.2416 107.986 56.6908 110.319 54.6515L109.705 54.1127C109.514 54.2968 109.33 54.481 109.153 54.6651C106.493 57.4069 105.292 59.835 105.483 62.4676L105.476 62.4608ZM121.047 25.9173C123.284 26.9881 125.371 28.8637 126.551 30.6984C127.554 32.3694 128.188 32.6968 128.87 32.6763C129.887 32.649 130.719 31.1758 130.685 29.8186C130.657 28.6864 130.057 28.2294 128.563 27.2473C126.66 25.9924 124.096 25.324 121.313 25.0034L121.054 25.9173H121.047ZM139.749 70.2224C139.66 69.0492 139.571 67.7125 139.537 66.4848C139.524 65.9801 139.517 65.5913 139.503 65.1412C139.49 62.3517 140.083 57.4751 141.365 53.0214C141.515 52.3462 141.877 51.33 142.088 50.7707C142.402 49.925 142.552 49.1406 142.525 48.2472C142.504 47.4083 142.129 46.0237 141.543 44.8097C140.601 43.0432 139.667 41.5632 137.785 40.1037L137.021 40.6834C138.01 42.2794 138.276 43.8344 138.316 45.2871C138.351 46.5694 138.119 48.5336 137.88 49.9932C136.884 56.6703 136.352 62.0447 136.468 66.5666C136.584 70.918 137.382 75.931 139.189 78.8978C140.008 80.2756 140.806 80.8144 141.809 80.7871C142.757 80.7598 143.295 80.0232 143.268 78.7955C143.254 78.2363 143.179 77.4587 142.934 76.6267C142.627 75.6855 142.436 74.6283 142.409 73.5098C142.388 72.7595 142.074 69.82 145.389 64.9911C145.021 64.7183 144.837 64.6706 144.564 64.425C144.564 64.425 140.581 69.5676 140.09 70.161L139.756 70.2224H139.749ZM173.216 52.9464C175.453 52.885 175.944 52.4826 175.917 51.48C175.876 50.0273 174.123 49.0111 172.336 49.0588C171.552 49.0793 171 49.1475 170.611 49.3248C170.113 49.5089 169.779 49.5703 169.001 49.6999C168.053 49.8363 166.941 49.9795 165.939 50.0614C165.898 48.445 165.85 46.658 165.918 45.0894C165.959 44.4141 166.109 43.8549 166.375 43.4593C166.641 43.0023 166.805 42.7227 166.791 42.218C166.778 41.6587 166.539 41.0517 165.687 40.5129C163.068 38.6782 160.885 38.4054 160.155 38.419C159.316 38.4395 158.157 38.8624 157.27 39.333L157.298 40.3356C159.2 40.3969 160.21 40.5947 160.899 41.3041C161.417 41.8497 161.553 42.7431 161.717 44.7483C161.881 46.7535 161.976 48.3768 162.038 50.5525L159.63 51.0913C155.401 51.7324 153.662 51.8006 151.63 51.8551C150.102 51.8961 148.111 51.6096 146.487 50.1228L145.717 50.8798C147.381 53.8944 149.85 55.1357 152.339 55.0675C153.758 55.0334 156.24 54.7947 158.437 54.2832L162.181 53.5602C162.208 55.354 162.31 64.35 161.888 70.7134C161.826 71.6001 161.71 73.1687 161.165 75.1398C160.79 76.5039 160.148 78.7546 158.45 81.0599C156.534 83.6584 154.187 85.0907 152.646 85.8478L153.287 86.9459C154.788 86.5094 157.277 85.5613 159.623 83.4266C162.065 81.2031 163.122 78.816 163.988 76.7904C165.953 72.2071 166.157 68.2581 166.355 63.6203C166.464 61.0422 166.464 57.5092 165.973 53.2942C168.367 53.0623 170.27 53.0146 171.607 52.9805C172.275 52.96 172.834 52.9464 173.223 52.9396L173.216 52.9464ZM81.4416 151.296H79.7501V151.814H81.4416V151.296ZM68.667 152.987H70.1198V152.66H68.667V152.987ZM68.667 151.903H70.1198V151.576H68.667V151.903ZM78.0177 151.296H76.3263V151.814H78.0177V151.296ZM78.0177 153.171H76.3263V153.738H78.0177V153.171ZM63.5518 152.987H65.1V152.66H63.5518V152.987ZM132.615 154.631H130.125V153.178H132.799C132.86 152.551 132.894 151.944 132.894 151.35H130.971L131.442 152.428L130.268 152.803C130.112 152.21 129.968 151.801 129.846 151.582V157.591C131.257 156.902 132.178 155.92 132.615 154.631ZM63.5518 151.903H65.1V151.576H63.5518V151.903ZM64.1656 150.075H63.7905C63.6336 150.327 63.4767 150.498 63.3199 150.593H64.2611L64.1656 150.075ZM68.858 150.075H68.3874L67.9645 150.593H68.9535L68.858 150.075ZM65.9457 155.804H67.7804V155.381H65.9457V155.804ZM65.9457 157.025H67.7804V156.602H65.9457V157.025ZM81.4416 153.171H79.7501V153.738H81.4416V153.171ZM146.562 152.469H147.735V153.594H146.562V154.113H147.592V155.565C147.906 155.627 148.029 155.518 147.967 155.238V152.046H146.555V152.469H146.562ZM146.33 150.873L146.61 150.307H145.014L145.246 150.873H146.324H146.33ZM54.6307 144.469H180.889V163.184H54.6307V144.469ZM163.47 149.509C163.722 149.57 164.063 149.761 164.5 150.075C164.97 150.389 165.25 150.641 165.346 150.825L166.334 149.461C165.741 148.772 165.1 148.336 164.411 148.145L163.47 149.509ZM163.143 152.278C163.395 152.339 163.77 152.558 164.268 152.933C164.704 153.274 164.991 153.54 165.114 153.731L165.959 152.462V152.742H169.151V153.867H166.901V159.03H168.592V158.464H171.409V159.03H173.1V153.867H170.754V152.742H173.946V151.241H170.754V150.068C171.914 149.911 172.787 149.754 173.387 149.598L172.357 148.049C171.702 148.24 170.713 148.411 169.397 148.568C168.142 148.725 167.16 148.8 166.437 148.8L167.092 150.396C167.528 150.396 168.217 150.348 169.158 150.252V151.241H165.966V152.367C165.4 151.712 164.773 151.241 164.091 150.955L163.149 152.271L163.143 152.278ZM162.904 157.823L164.404 158.853C165.277 157.666 165.843 156.445 166.096 155.19L164.779 154.16C164.466 155.443 163.838 156.663 162.904 157.823ZM151.118 152.612L152.291 153.976C152.632 153.635 153.042 152.987 153.512 152.053H155.954V153.744H152.81V155.245H155.954V157.12H151.166V158.669H161.922V157.12H157.557V155.245H160.844V153.744H157.557V152.053H161.362V150.6H157.557V148.206H155.961V150.6H154.174C154.331 150.348 154.488 149.864 154.644 149.147L153.096 148.725C152.817 150.136 152.155 151.432 151.125 152.619L151.118 152.612ZM139.94 154.488V156.739L138.951 157.68L139.94 158.948L141.017 158.007C141.488 158.382 141.972 158.621 142.47 158.71C142.75 158.771 143.302 158.819 144.114 158.853L146.276 158.901L149.611 158.853L149.986 157.257L146.931 157.352L145.007 157.4C144.666 157.4 144.209 157.373 143.643 157.305C142.92 157.243 142.436 157.148 142.19 157.025H143.643V152.046H145.055V152.469H143.882V153.594H145.055V154.113H144.066V156.786H145.382V156.507H147.306L147.449 157.025H148.342C149.065 157.025 149.42 156.663 149.42 155.947V150.873H148.008L148.336 150.307H149.747V148.991H146.692V148.193H145V148.991H141.904V149.598C141.747 149.379 141.467 149.141 141.058 148.895C140.649 148.615 140.308 148.425 140.028 148.329L138.999 149.645C139.312 149.768 139.674 149.973 140.076 150.252C140.513 150.566 140.813 150.832 140.97 151.05L141.911 149.686V150.3H143.323L143.602 150.866H142.15V156.97C141.802 156.657 141.631 156.234 141.631 155.702V152.981H139.094V154.481H139.94V154.488ZM128.297 159.044H129.846V157.918L130.739 159.187C131.551 158.716 132.24 158.123 132.806 157.4C133.242 156.868 133.542 156.432 133.699 156.084C134.572 157.496 135.684 158.539 137.034 159.228L138.064 157.727C136.407 156.916 135.322 155.879 134.824 154.631H138.016V153.178H136.939V149.843H134.497V148.199H132.901V149.843H130.882V151.207L130.603 150.6L129.852 150.88V148.247H128.304V159.044H128.297ZM126.838 153.594L127.963 153.969C128.059 153.001 128.12 151.998 128.154 150.962L127.077 150.73C127.077 151.889 126.995 152.844 126.845 153.594H126.838ZM125.631 152.496L125.058 151.31L124.137 151.705L124.799 152.892L125.631 152.496ZM123.83 151.835L122.95 152.23L123.564 153.458L124.444 153.021L123.83 151.835ZM116.048 150.034L116.266 151.616C118.497 151.439 120.079 151.282 121.013 151.132C120.045 151.896 119.37 152.776 118.994 153.772C118.558 154.945 118.728 155.954 119.52 156.807C119.929 157.277 120.488 157.625 121.191 157.864C121.661 158.041 122.302 158.198 123.128 158.348L123.612 156.807C122.793 156.691 122.248 156.588 121.989 156.5C121.375 156.322 120.931 156.016 120.672 155.579C120.318 154.965 120.406 154.201 120.938 153.294C121.375 152.53 121.92 151.93 122.561 151.494C123.032 151.173 123.469 150.955 123.878 150.832C124.082 150.771 124.553 150.689 125.283 150.566L125.017 149.025C122.527 149.523 119.533 149.857 116.048 150.034ZM108.007 158.669H109.794V152.94C110.483 153.315 111.703 154.195 113.456 155.572L114.582 154.16C112.986 152.94 111.669 152.032 110.639 151.439L109.794 152.469V148.479H108.007V158.669ZM102.605 154.583C101.821 155.647 100.525 156.527 98.7107 157.216L99.6996 158.628C101.487 157.878 102.844 156.909 103.785 155.715C104.658 154.617 105.347 153.069 105.852 151.064L104.208 150.498C103.799 152.346 103.267 153.71 102.612 154.583H102.605ZM99.9725 150.778C100.286 151.432 100.6 152.189 100.914 153.028L102.325 152.558C102.012 151.773 101.684 151.009 101.337 150.259L99.9725 150.778ZM97.483 151.2C97.824 151.923 98.1582 152.735 98.472 153.642L99.7883 153.076C99.5701 152.387 99.2427 151.589 98.7994 150.682L97.483 151.2ZM85.9975 152.094L86.2772 153.881L88.3438 153.458V156.132C88.3438 157.543 89.0326 158.246 90.4103 158.246L95.1505 158.198L95.3414 156.411C93.841 156.534 92.6951 156.602 91.9108 156.602H90.8809C90.383 156.602 90.1307 156.411 90.1307 156.036V153.076L93.4181 152.469C93.0703 153.062 92.6065 153.69 92.0063 154.345L93.5068 155.422C94.2297 154.481 95.0277 153.199 95.9007 151.569L94.5844 150.491L94.3934 150.634L90.1171 151.385V148.615H88.3301V151.712L85.9839 152.087L85.9975 152.094ZM73.4617 157.4H78.0177V159.092H79.7569V157.4H84.3607V155.9H79.7569V155.245H83.0921V149.795H82.4373C82.6556 149.577 82.9079 149.188 83.1876 148.622L81.4484 148.104C81.0392 149.045 80.7459 149.604 80.5549 149.795H79.0544L79.8524 149.564L79.2386 148.063L77.5949 148.438L78.161 149.802H76.1899L76.8924 149.57L75.9989 148.07L74.4984 148.636L75.2009 149.809H74.6826V155.259H78.0177V155.913H73.4617V157.414V157.4ZM61.342 150.259L61.9081 150.73V159.092H63.5518V154.017H66.6482V150.587H65.7547L65.6115 150.068H66.3618L66.2185 150.211L67.112 150.818V154.01H70.1198V156.875C70.1198 157.223 69.9629 157.393 69.6492 157.393H69.1786V154.345H64.5271V158.573H65.9389V158.15H69.1308L69.5059 158.996H70.4949C71.3679 158.996 71.8112 158.573 71.8112 157.727V150.593H70.4471L70.3039 150.075H72.2273V148.759H69.2195L69.4514 148.384L67.8554 148.104C67.6644 148.602 67.3575 149.072 66.9142 149.516V148.766H64.7522L64.984 148.438L63.2926 148.063C63.1971 148.315 62.9448 148.677 62.5424 149.141C62.1331 149.611 61.7307 149.986 61.3215 150.266L61.342 150.259ZM145.389 155.565H146.33V154.999H145.389V155.565ZM168.585 157.073H171.402V155.334H168.585V157.073ZM135.247 151.344H134.497V153.171H135.247V151.344ZM182.935 153.015V165.23H171.532V169.186H191.297L186.073 160.933L191.297 153.015H182.935ZM52.5846 153.015H44.2229L49.4473 160.933L44.2229 169.186H63.9883V165.23H52.5846V153.015Z" fill="#AA8420"/>
</g>
<defs>
<clipPath id="clip0_219_37">
<rect width="250" height="169.186" fill="white"/>
</clipPath>
</defs>
</svg>
